<svg xmlns="http://www.w3.org/2000/svg" width="42.906" height="26.816" viewBox="0 0 42.906 26.816">
  <path id="Icon_metro-eye" data-name="Icon metro-eye" d="M24.024,7.712A24.028,24.028,0,0,0,2.571,21.12a23.866,23.866,0,0,0,42.906,0A24.028,24.028,0,0,0,24.024,7.712ZM34.6,14.823a20.4,20.4,0,0,1,6.261,6.3,20.4,20.4,0,0,1-6.261,6.3,19.66,19.66,0,0,1-21.156,0,20.4,20.4,0,0,1-6.261-6.3,20.4,20.4,0,0,1,6.261-6.3c.164-.1.33-.206.5-.306a10.726,10.726,0,1,0,20.162,0q.251.149.5.306ZM24.024,17.1A4.022,4.022,0,1,1,20,13.075,4.022,4.022,0,0,1,24.024,17.1Z" transform="translate(-2.571 -7.712)" fill="#fff"/>
</svg>
